<?xml version="1.0" standalone="no"?><!DOCTYPE svg PUBLIC "-//W3C//DTD SVG 1.1//EN" "http://www.w3.org/Graphics/SVG/1.1/DTD/svg11.dtd"><svg t="1507902693444" class="icon" style="" viewBox="0 0 1024 1024" version="1.1" xmlns="http://www.w3.org/2000/svg" p-id="2568" xmlns:xlink="http://www.w3.org/1999/xlink" width="200" height="200"><defs><style type="text/css"></style></defs><path d="M84.2 371.1L288 167.5c26.4-26.4 69.5-26.4 95.9 0l383.6 383.2c26.4 26.3 26.4 69.4 0 95.8L563.7 850.1c-26.4 26.4-69.5 26.4-95.9 0L84.2 466.9c-26.4-26.4-26.4-69.5 0-95.8" fill="#FEB9C8" p-id="2569"></path><path d="M938.6 371.1L734.8 167.5c-26.4-26.4-69.5-26.4-95.9 0L255.2 550.7c-26.4 26.3-26.4 69.4 0 95.8L459 850.1c26.4 26.4 69.5 26.4 95.9 0l383.7-383.2c26.4-26.4 26.4-69.5 0-95.8" fill="#FE7491" p-id="2570"></path></svg>